<svg width="1440" height="933" viewBox="0 0 1440 933" fill="none" xmlns="http://www.w3.org/2000/svg">
<g clip-path="url(#clip0_6_185)">
<g opacity="0.99" filter="url(#filter0_f_6_185)">
<path fill-rule="evenodd" clip-rule="evenodd" d="M1024.62 285.179C1095.31 267.222 1162.96 197.199 1229.15 222.416C1298.31 248.765 1256.08 331.464 1283.64 383.857C1300.94 416.741 1359.65 437.287 1360.66 472.407C1361.73 509.591 1284.17 533.157 1289 570.188C1295.55 620.412 1391.6 650.715 1390.49 701.149C1389.54 744.557 1324.5 772.774 1283.85 805.058C1236.64 842.546 1201.33 910.91 1130.9 907.289C1049.09 903.084 1015.03 827.083 953.838 788.094C918.973 765.878 881.152 747.838 846.069 725.798C813.53 705.355 784.333 683.807 753.371 662.153C713.81 634.484 626.659 618.317 636.817 579.45C648.975 532.936 790.909 544.573 796.427 497.42C804.269 430.415 639.498 384.833 667.118 320.551C687.8 272.417 806.19 319.031 876.047 312.119C927.221 307.056 975.952 297.544 1024.62 285.179Z" fill="url(#paint0_linear_6_185)"/>
</g>
<g filter="url(#filter1_f_6_185)">
<path d="M142.498 261.518C47.3853 249.484 -108.146 234.468 -204.728 226.294C-300.438 237.163 -350.788 124.504 -446.276 113.104C-534.513 102.57 -675.175 170.88 -675.175 170.88V501L780.234 491.55L743.92 337.336C743.92 337.336 674.418 202.118 621.922 197.514C488.918 185.849 472.325 163.657 337.531 161.86C264.995 160.893 213.048 270.445 142.498 261.518Z" fill="#10193B"/>
</g>
<g filter="url(#filter2_df_6_185)">
<ellipse cx="582.724" cy="141.5" rx="495.875" ry="247.5" fill="#8ABBF1"/>
</g>
<g filter="url(#filter3_df_6_185)">
<ellipse cx="582.724" cy="141.5" rx="495.875" ry="247.5" fill="#8ABBF1"/>
</g>
<g filter="url(#filter4_f_6_185)">
<path fill-rule="evenodd" clip-rule="evenodd" d="M373.216 264.179C443.9 246.222 511.548 176.199 577.739 201.416C646.902 227.765 604.674 310.464 632.235 362.857C649.535 395.741 708.24 416.287 709.249 451.407C710.317 488.591 632.757 512.157 637.587 549.188C644.137 599.412 740.19 629.715 739.084 680.149C738.132 723.557 673.093 751.774 632.437 784.058C585.229 821.546 549.922 889.91 479.492 886.289C397.685 882.084 363.62 806.083 302.43 767.094C267.564 744.878 229.744 726.838 194.66 704.798C162.122 684.355 132.925 662.807 101.963 641.153C62.4011 613.484 -24.7498 597.317 -14.5913 558.45C-2.43389 511.936 139.5 523.573 145.019 476.42C152.861 409.415 -11.9109 363.833 15.7096 299.551C36.3913 251.417 154.781 298.031 224.638 291.119C275.812 286.056 324.543 276.544 373.216 264.179Z" fill="url(#paint1_linear_6_185)"/>
</g>
</g>
<defs>
<filter id="filter0_f_6_185" x="436" y="17" width="1154.5" height="1090.43" filterUnits="userSpaceOnUse" color-interpolation-filters="sRGB">
<feFlood flood-opacity="0" result="BackgroundImageFix"/>
<feBlend mode="normal" in="SourceGraphic" in2="BackgroundImageFix" result="shape"/>
<feGaussianBlur stdDeviation="100" result="effect1_foregroundBlur_6_185"/>
</filter>
<filter id="filter1_f_6_185" x="-915.175" y="-128" width="1935.41" height="869" filterUnits="userSpaceOnUse" color-interpolation-filters="sRGB">
<feFlood flood-opacity="0" result="BackgroundImageFix"/>
<feBlend mode="normal" in="SourceGraphic" in2="BackgroundImageFix" result="shape"/>
<feGaussianBlur stdDeviation="120" result="effect1_foregroundBlur_6_185"/>
</filter>
<filter id="filter2_df_6_185" x="-153.152" y="-346" width="1471.75" height="975" filterUnits="userSpaceOnUse" color-interpolation-filters="sRGB">
<feFlood flood-opacity="0" result="BackgroundImageFix"/>
<feColorMatrix in="SourceAlpha" type="matrix" values="0 0 0 0 0 0 0 0 0 0 0 0 0 0 0 0 0 0 127 0" result="hardAlpha"/>
<feOffset/>
<feGaussianBlur stdDeviation="40"/>
<feComposite in2="hardAlpha" operator="out"/>
<feColorMatrix type="matrix" values="0 0 0 0 0.788235 0 0 0 0 0.698039 0 0 0 0 0.780392 0 0 0 1 0"/>
<feBlend mode="normal" in2="BackgroundImageFix" result="effect1_dropShadow_6_185"/>
<feBlend mode="normal" in="SourceGraphic" in2="effect1_dropShadow_6_185" result="shape"/>
<feGaussianBlur stdDeviation="120" result="effect2_foregroundBlur_6_185"/>
</filter>
<filter id="filter3_df_6_185" x="-153.152" y="-346" width="1471.75" height="975" filterUnits="userSpaceOnUse" color-interpolation-filters="sRGB">
<feFlood flood-opacity="0" result="BackgroundImageFix"/>
<feColorMatrix in="SourceAlpha" type="matrix" values="0 0 0 0 0 0 0 0 0 0 0 0 0 0 0 0 0 0 127 0" result="hardAlpha"/>
<feOffset/>
<feGaussianBlur stdDeviation="40"/>
<feComposite in2="hardAlpha" operator="out"/>
<feColorMatrix type="matrix" values="0 0 0 0 0.788235 0 0 0 0 0.698039 0 0 0 0 0.780392 0 0 0 1 0"/>
<feBlend mode="normal" in2="BackgroundImageFix" result="effect1_dropShadow_6_185"/>
<feBlend mode="normal" in="SourceGraphic" in2="effect1_dropShadow_6_185" result="shape"/>
<feGaussianBlur stdDeviation="120" result="effect2_foregroundBlur_6_185"/>
</filter>
<filter id="filter4_f_6_185" x="-215.409" y="-4" width="1154.5" height="1090.43" filterUnits="userSpaceOnUse" color-interpolation-filters="sRGB">
<feFlood flood-opacity="0" result="BackgroundImageFix"/>
<feBlend mode="normal" in="SourceGraphic" in2="BackgroundImageFix" result="shape"/>
<feGaussianBlur stdDeviation="100" result="effect1_foregroundBlur_6_185"/>
</filter>
<linearGradient id="paint0_linear_6_185" x1="636" y1="907.427" x2="1453.95" y2="537.505" gradientUnits="userSpaceOnUse">
<stop stop-color="#6CACE4"/>
<stop offset="0.0666667" stop-color="#6CACE4"/>
<stop offset="0.133333" stop-color="#6DADE4"/>
<stop offset="0.2" stop-color="#6FAEE5"/>
<stop offset="0.266667" stop-color="#72B0E5"/>
<stop offset="0.333333" stop-color="#75B3E6"/>
<stop offset="0.4" stop-color="#79B6E7"/>
<stop offset="0.466667" stop-color="#7DB9E8"/>
<stop offset="0.533333" stop-color="#82BDEA"/>
<stop offset="0.6" stop-color="#86C0EB"/>
<stop offset="0.666667" stop-color="#8AC3EC"/>
<stop offset="0.733333" stop-color="#8DC6ED"/>
<stop offset="0.8" stop-color="#90C8ED"/>
<stop offset="0.866667" stop-color="#92C9EE"/>
<stop offset="0.933333" stop-color="#93CAEE"/>
<stop offset="1" stop-color="#93CAEE"/>
</linearGradient>
<linearGradient id="paint1_linear_6_185" x1="-15.4086" y1="886.427" x2="802.544" y2="516.505" gradientUnits="userSpaceOnUse">
<stop stop-color="#6CACE4"/>
<stop offset="0.0666667" stop-color="#6CACE4"/>
<stop offset="0.133333" stop-color="#6DADE4"/>
<stop offset="0.2" stop-color="#6FAEE5"/>
<stop offset="0.266667" stop-color="#72B0E5"/>
<stop offset="0.333333" stop-color="#75B3E6"/>
<stop offset="0.4" stop-color="#79B6E7"/>
<stop offset="0.466667" stop-color="#7DB9E8"/>
<stop offset="0.533333" stop-color="#82BDEA"/>
<stop offset="0.6" stop-color="#86C0EB"/>
<stop offset="0.666667" stop-color="#8AC3EC"/>
<stop offset="0.733333" stop-color="#8DC6ED"/>
<stop offset="0.8" stop-color="#90C8ED"/>
<stop offset="0.866667" stop-color="#92C9EE"/>
<stop offset="0.933333" stop-color="#93CAEE"/>
<stop offset="1" stop-color="#93CAEE"/>
</linearGradient>
<clipPath id="clip0_6_185">
<rect width="1440" height="933" rx="20" fill="white"/>
</clipPath>
</defs>
</svg>
